# xmcd CD database file
#
# Track frame offsets:
#	150
#	22536
#	63251
#	71455
#	114238
#	158227
#	185304
#	221950
#	254754
#	280133
#
# Disc length: 4391 seconds
#
# Revision: 0
# Processed by: cddbd v1.5.2PL0 Copyright (c) Steve Scherf et al.
# Submitted via: CDex 1.70beta3
#
DISCID=8811250a
DTITLE=Sonny Rollins - Holding the Stage
DYEAR=2016
DGENRE=Jazz
TTITLE0=In a Sentimental Mood
TTITLE1=Professor Paul
TTITLE2=Mixed Emotions
TTITLE3=Keep Hold of Yourself
TTITLE4=Disco Monk
TTITLE5=Your Mine You
TTITLE6=H.S.
TTITLE7=Medly: Sweet Leilani
TTITLE8=Medly: Solo
TTITLE9=Medly: Don’t Stop the Carnival
EXTD=YEAR: 2016
EXTT0=
EXTT1=
EXTT2=
EXTT3=
EXTT4=
EXTT5=
EXTT6=
EXTT7=
EXTT8=
EXTT9=
PLAYORDER=
